<svg width="107" height="59" viewBox="0 0 107 59" fill="none" xmlns="http://www.w3.org/2000/svg">
<path fill-rule="evenodd" clip-rule="evenodd" d="M1.5548 1.9647C-0.51812 4.1357 -0.51812 7.64685 1.5548 9.8125L45.4805 55.7145C46.4487 56.742 47.6121 57.5602 48.9037 58.1192C50.1953 58.6783 51.5884 58.9665 52.9939 58.9665C54.3994 58.9665 55.79 58.6783 57.0815 58.1192C58.3731 57.5602 59.5365 56.742 60.5048 55.7145L104.755 9.48017C105.744 8.43087 106.3 7.04131 106.309 5.59369C106.319 4.14607 105.781 2.74886 104.807 1.68595C104.326 1.15939 103.743 0.738126 103.094 0.448146C102.445 0.158166 101.743 0.00568339 101.033 0.000155656C100.323 -0.00537207 99.6209 0.136163 98.9673 0.416C98.3137 0.695837 97.7229 1.10797 97.2336 1.62697L56.7467 43.9427C56.2626 44.4569 55.6799 44.8663 55.0338 45.1461C54.3878 45.4259 53.6944 45.5703 52.9913 45.5703C52.2882 45.5703 51.5922 45.4259 50.9462 45.1461C50.3002 44.8663 49.7175 44.4569 49.2333 43.9427L9.06564 1.9647C8.58195 1.45068 7.99833 1.04138 7.35274 0.761661C6.70715 0.481937 6.01287 0.337637 5.31023 0.337637C4.60757 0.337637 3.91331 0.481937 3.26772 0.761661C2.62212 1.04138 2.03849 1.45068 1.5548 1.9647Z" fill="#EE4266"/>
</svg>
