<svg width="107" height="59" viewBox="0 0 107 59" fill="none" xmlns="http://www.w3.org/2000/svg">
<path fill-rule="evenodd" clip-rule="evenodd" d="M104.755 57.0018C106.828 54.8308 106.828 51.3196 104.755 49.154L60.8291 3.25199C59.8609 2.2245 58.6974 1.4063 57.4059 0.847229C56.1143 0.288162 54.7212 -6.14366e-08 53.3157 0C51.9101 6.14368e-08 50.5196 0.288162 49.228 0.847229C47.9365 1.4063 46.773 2.2245 45.8048 3.252L1.55473 49.4863C0.565819 50.5356 0.0100054 51.9252 0.000133478 53.3728C-0.00973846 54.8204 0.528317 56.2176 1.50282 57.2805C1.98406 57.8071 2.56649 58.2284 3.21573 58.5183C3.86496 58.8083 4.56637 58.9608 5.27641 58.9663C5.98644 58.9719 6.68868 58.8303 7.34228 58.5505C7.99587 58.2706 8.5867 57.8585 9.07594 57.3395L49.5628 15.0237C50.047 14.5096 50.6297 14.1002 51.2757 13.8204C51.9218 13.5406 52.6152 13.3962 53.3182 13.3962C54.0213 13.3962 54.7173 13.5406 55.3634 13.8204C56.0094 14.1002 56.5921 14.5096 57.0763 15.0237L97.2439 57.0018C97.7276 57.5158 98.3112 57.9251 98.9568 58.2048C99.6024 58.4845 100.297 58.6288 100.999 58.6288C101.702 58.6288 102.396 58.4845 103.042 58.2048C103.687 57.9251 104.271 57.5158 104.755 57.0018Z" fill="#8FDC97"/>
</svg>
